<?xml version="1.0" encoding="UTF-8"?>
<!--
  HeatPump Hero — A2W heat pump schematic: Zone 1 + Zone 2 + DHW (animated)
  Version: v0.3  — extends DHW variant with Zone 2 heating circuit

  Canvas: 900×580 (60px taller than hk1/dhw to accommodate Zone 2 block)

  Hotspot anchors (data-hotspot-x / data-hotspot-y, px in 900×580 viewBox):
    mode(450,37)  outdoor-temp(115,50)  discharge(460,115)
    supply-temp(693,130)  return-temp(693,262)
    dhw-temp(823,188)
    zone1-temp(733,227)  zone2-temp(708,408)
    pressure(57,557)  waterflow(145,557)
    comp-freq(823,350)  comp-hours(793,393)  comp-starts(848,393)
    defrost(823,441)
    cop-live(252,557)  cop-daily(364,557)  scop(461,557)
-->
<svg xmlns="http://www.w3.org/2000/svg" viewBox="0 0 900 580"
     font-family="'Segoe UI', Arial, sans-serif">
<defs>
  <linearGradient id="g-dark" x1="0" y1="0" x2="0" y2="1">
    <stop offset="0%" stop-color="#2c3e50"/>
    <stop offset="100%" stop-color="#1a252f"/>
  </linearGradient>
  <linearGradient id="g-comp" x1="0" y1="0" x2="0" y2="1">
    <stop offset="0%" stop-color="#34495e"/>
    <stop offset="100%" stop-color="#243342"/>
  </linearGradient>
  <linearGradient id="g-hx-refrig" x1="0" y1="0" x2="0" y2="1">
    <stop offset="0%" stop-color="#3d2200"/>
    <stop offset="100%" stop-color="#1a1200"/>
  </linearGradient>
  <linearGradient id="g-hx-water" x1="0" y1="0" x2="0" y2="1">
    <stop offset="0%" stop-color="#001e33"/>
    <stop offset="100%" stop-color="#000e1a"/>
  </linearGradient>
  <linearGradient id="g-dhw" x1="0" y1="0" x2="0" y2="1">
    <stop offset="0%" stop-color="#1e3a4a"/>
    <stop offset="100%" stop-color="#0d1e26"/>
  </linearGradient>
  <linearGradient id="g-zone2" x1="0" y1="0" x2="0" y2="1">
    <stop offset="0%" stop-color="#1e1e3a"/>
    <stop offset="100%" stop-color="#0d0d20"/>
  </linearGradient>
  <filter id="shadow" x="-8%" y="-8%" width="116%" height="116%">
    <feDropShadow dx="2" dy="3" stdDeviation="4" flood-color="#00000066"/>
  </filter>
  <filter id="glow-hot" x="-30%" y="-30%" width="160%" height="160%">
    <feGaussianBlur in="SourceGraphic" stdDeviation="2.5" result="b"/>
    <feMerge><feMergeNode in="b"/><feMergeNode in="SourceGraphic"/></feMerge>
  </filter>
  <filter id="glow-cold" x="-30%" y="-30%" width="160%" height="160%">
    <feGaussianBlur in="SourceGraphic" stdDeviation="2" result="b"/>
    <feMerge><feMergeNode in="b"/><feMergeNode in="SourceGraphic"/></feMerge>
  </filter>
  <marker id="m-supply" markerWidth="7" markerHeight="7" refX="6" refY="3" orient="auto">
    <path d="M0,0 L0,6 L7,3 z" fill="#e74c3c"/>
  </marker>
  <marker id="m-return" markerWidth="7" markerHeight="7" refX="6" refY="3" orient="auto">
    <path d="M0,0 L0,6 L7,3 z" fill="#2980b9"/>
  </marker>
</defs>

<rect width="900" height="580" fill="#0f1923"/>
<g stroke="#ffffff05" stroke-width="1">
  <line x1="0" y1="88" x2="900" y2="88"/>
  <line x1="0" y1="310" x2="900" y2="310"/>
  <line x1="0" y1="460" x2="900" y2="460"/>
  <line x1="195" y1="0" x2="195" y2="580"/>
  <line x1="490" y1="0" x2="490" y2="460"/>
  <line x1="650" y1="0" x2="650" y2="460"/>
  <line x1="762" y1="0" x2="762" y2="310"/>
</g>

<!-- MODE BAR -->
<g filter="url(#shadow)">
  <rect x="285" y="18" width="330" height="40" rx="8" fill="#1a252f" stroke="#3d5166" stroke-width="1.5"/>
  <text x="450" y="32" text-anchor="middle" fill="#4a6a8a" font-size="8" letter-spacing="1.5">OPERATING MODE</text>
  <rect x="305" y="36" width="290" height="16" rx="3" fill="transparent"
        id="hotspot-mode" data-hotspot-x="450" data-hotspot-y="44"/>
  <text x="450" y="48" text-anchor="middle" fill="#8ca8c0" font-size="12" font-weight="600">Heating</text>
</g>

<!-- OUTDOOR TEMP -->
<g filter="url(#shadow)">
  <rect x="15" y="18" width="183" height="56" rx="8" fill="#1a252f" stroke="#3d5166" stroke-width="1.5"/>
  <text x="107" y="32" text-anchor="middle" fill="#4a6a8a" font-size="8" letter-spacing="1">OUTDOOR TEMPERATURE</text>
  <line x1="15" y1="38" x2="198" y2="38" stroke="#3d5166" stroke-width="1"/>
  <rect x="28" y="42" width="5" height="17" rx="2.5" fill="#e0a800"/>
  <circle cx="30.5" cy="62" r="6" fill="#e0a800"/>
  <rect x="46" y="42" width="143" height="26" rx="4" fill="#0f1923" stroke="#3d5166" stroke-width="1"
        id="hotspot-outdoor-temp" data-hotspot-x="117" data-hotspot-y="55"/>
  <text x="117" y="60" text-anchor="middle" fill="#e0a800" font-size="17" font-weight="700">T°</text>
</g>

<!-- OUTDOOR UNIT -->
<g id="outdoor-unit" filter="url(#shadow)">
  <rect x="15" y="88" width="180" height="330" rx="12" fill="url(#g-dark)" stroke="#3d5166" stroke-width="1.5"/>
  <circle cx="105" cy="210" r="66" fill="#1a2733" stroke="#3d5166" stroke-width="1.5"/>
  <g transform="translate(105,210)">
    <g>
      <animateTransform attributeName="transform" type="rotate"
        from="0" to="360" dur="5s" repeatCount="indefinite" additive="sum"/>
      <path d="M0,-58 C16,-42 18,-22 0,0 C-18,-22 -16,-42 0,-58" fill="#3d5166" opacity="0.95"/>
      <path d="M50,-29 C32,-8 14,-4 0,0 C8,-22 30,-36 50,-29" fill="#3d5166" opacity="0.95"/>
      <path d="M50,29 C24,18 10,8 0,0 C20,4 38,14 50,29" fill="#3d5166" opacity="0.95"/>
      <path d="M0,58 C-16,42 -18,22 0,0 C18,22 16,42 0,58" fill="#3d5166" opacity="0.95"/>
      <path d="M-50,29 C-28,18 -10,8 0,0 C-8,22 -30,36 -50,29" fill="#3d5166" opacity="0.95"/>
      <path d="M-50,-29 C-24,-18 -10,-8 0,0 C-20,-4 -38,-14 -50,-29" fill="#3d5166" opacity="0.95"/>
    </g>
    <circle r="9" fill="#243342" stroke="#4a6a8a" stroke-width="1.5"/>
    <circle r="3" fill="#4a6a8a"/>
  </g>
  <rect x="25" y="288" width="160" height="112" rx="6" fill="#141f29" stroke="#3d5166" stroke-width="1"/>
  <g stroke="#2c3e50" stroke-width="1">
    <line x1="30" y1="296" x2="180" y2="296"/><line x1="30" y1="304" x2="180" y2="304"/>
    <line x1="30" y1="312" x2="180" y2="312"/><line x1="30" y1="320" x2="180" y2="320"/>
    <line x1="30" y1="328" x2="180" y2="328"/><line x1="30" y1="336" x2="180" y2="336"/>
    <line x1="30" y1="344" x2="180" y2="344"/><line x1="30" y1="352" x2="180" y2="352"/>
    <line x1="30" y1="360" x2="180" y2="360"/><line x1="30" y1="368" x2="180" y2="368"/>
    <line x1="30" y1="376" x2="180" y2="376"/>
  </g>
  <g stroke="#1a6ea8" stroke-width="2" opacity="0.5">
    <line x1="55" y1="288" x2="55" y2="400"/><line x1="82" y1="288" x2="82" y2="400"/>
    <line x1="109" y1="288" x2="109" y2="400"/><line x1="136" y1="288" x2="136" y2="400"/>
    <line x1="163" y1="288" x2="163" y2="400"/>
  </g>
  <rect x="188" y="144" width="9" height="13" rx="2" fill="#85c1e9" stroke="#5a9fc0" stroke-width="1"/>
  <rect x="188" y="368" width="9" height="13" rx="2" fill="#1a6ea8" stroke="#2980b9" stroke-width="1"/>
  <text x="105" y="410" text-anchor="middle" fill="#8ca8c0" font-size="11" font-weight="600" letter-spacing="0.5">OUTDOOR UNIT</text>
  <text x="105" y="423" text-anchor="middle" fill="#4a6a8a" font-size="9">evaporator · fan</text>
</g>

<!-- COMPRESSOR -->
<g id="compressor" filter="url(#shadow)">
  <ellipse cx="360" cy="198" rx="65" ry="17" fill="#1e2d3d" stroke="#3d5166" stroke-width="1.5"/>
  <rect x="295" y="108" width="130" height="90" fill="url(#g-comp)" stroke="#3d5166" stroke-width="1.5"/>
  <ellipse cx="360" cy="108" rx="65" ry="17" fill="#3d5166" stroke="#4a6a8a" stroke-width="1.5"/>
  <ellipse cx="360" cy="155" rx="32" ry="32" fill="none" stroke="#4a6a8a" stroke-width="1.5" stroke-dasharray="5 3"/>
  <path d="M360,145 C365,150 368,155 360,162 C352,155 355,150 360,145" fill="none" stroke="#5a7a96" stroke-width="1.5"/>
  <circle cx="360" cy="155" r="7" fill="#1a252f" stroke="#4a6a8a" stroke-width="1.5"/>
  <circle cx="360" cy="155" r="3" fill="#4a6a8a"/>
  <line x1="360" y1="148" x2="360" y2="130" stroke="#5a7a96" stroke-width="1.5" opacity="0.6">
    <animate attributeName="y2" values="130;136;130" dur="0.4s" repeatCount="indefinite"/>
  </line>
  <rect x="283" y="127" width="13" height="16" rx="3" fill="#85c1e9" stroke="#5a9fc0" stroke-width="1"/>
  <rect x="424" y="127" width="13" height="16" rx="3" fill="#e67e22" stroke="#d35400" stroke-width="1"/>
  <text x="360" y="187" text-anchor="middle" fill="#8ca8c0" font-size="10" font-weight="600" letter-spacing="0.5">COMPRESSOR</text>
</g>

<!-- CONDENSER -->
<g id="condenser" filter="url(#shadow)">
  <rect x="490" y="108" width="160" height="165" rx="10" fill="url(#g-dark)" stroke="#3d5166" stroke-width="1.5"/>
  <rect x="498" y="116" width="72" height="149" rx="4" fill="url(#g-hx-refrig)" stroke="#3d5166" stroke-width="1"/>
  <g stroke="#4d2800" stroke-width="1">
    <line x1="508" y1="118" x2="508" y2="263"/><line x1="517" y1="118" x2="517" y2="263"/>
    <line x1="526" y1="118" x2="526" y2="263"/><line x1="535" y1="118" x2="535" y2="263"/>
    <line x1="544" y1="118" x2="544" y2="263"/><line x1="553" y1="118" x2="553" y2="263"/>
    <line x1="562" y1="118" x2="562" y2="263"/>
  </g>
  <line x1="574" y1="116" x2="574" y2="265" stroke="#4a6a8a" stroke-width="1.5" stroke-dasharray="4 3"/>
  <rect x="578" y="116" width="64" height="149" rx="4" fill="url(#g-hx-water)" stroke="#3d5166" stroke-width="1"/>
  <g stroke="#00223d" stroke-width="1">
    <line x1="587" y1="118" x2="587" y2="263"/><line x1="596" y1="118" x2="596" y2="263"/>
    <line x1="605" y1="118" x2="605" y2="263"/><line x1="614" y1="118" x2="614" y2="263"/>
    <line x1="623" y1="118" x2="623" y2="263"/><line x1="632" y1="118" x2="632" y2="263"/>
  </g>
  <text x="533" y="105" text-anchor="middle" fill="#7d4e1a" font-size="8" font-weight="600">REFRIG.</text>
  <text x="612" y="105" text-anchor="middle" fill="#1a5276" font-size="8" font-weight="600">WATER</text>
  <rect x="479" y="122" width="12" height="16" rx="3" fill="#e67e22" stroke="#d35400" stroke-width="1"/>
  <rect x="479" y="246" width="12" height="16" rx="3" fill="#f39c12" stroke="#d68910" stroke-width="1"/>
  <rect x="649" y="122" width="12" height="16" rx="3" fill="#e74c3c" stroke="#c0392b" stroke-width="1"/>
  <rect x="649" y="246" width="12" height="16" rx="3" fill="#2980b9" stroke="#1a6ea8" stroke-width="1"/>
  <text x="570" y="285" text-anchor="middle" fill="#5a7a96" font-size="10" font-weight="600" letter-spacing="0.3">HEAT EXCHANGER</text>
</g>

<!-- EXPANSION VALVE -->
<g id="expansion-valve" filter="url(#shadow)">
  <rect x="315" y="405" width="94" height="70" rx="8" fill="#1a252f" stroke="#3d5166" stroke-width="1.5"/>
  <line x1="362" y1="405" x2="362" y2="418" stroke="#f39c12" stroke-width="4" stroke-linecap="round"/>
  <polygon points="338,418 386,418 362,440" fill="#243342" stroke="#f39c12" stroke-width="1.5"/>
  <polygon points="338,440 386,440 362,418" fill="#131e27" stroke="#2980b9" stroke-width="1.5"/>
  <line x1="362" y1="440" x2="362" y2="453" stroke="#2980b9" stroke-width="4" stroke-linecap="round"/>
  <line x1="386" y1="428" x2="400" y2="428" stroke="#4a6a8a" stroke-width="1.5"/>
  <circle cx="406" cy="428" r="6" fill="#1a252f" stroke="#4a6a8a" stroke-width="1.5"/>
  <text x="362" y="465" text-anchor="middle" fill="#5a7a96" font-size="9" font-weight="600">EXP. VALVE</text>
</g>

<!-- REFRIGERANT CIRCUIT -->
<g filter="url(#glow-hot)">
  <path d="M437,135 H490" fill="none" stroke="#8b4800" stroke-width="7" stroke-linecap="round"/>
  <path d="M437,135 H490" fill="none" stroke="#e67e22" stroke-width="5" stroke-linecap="round"/>
  <path d="M437,135 H490" fill="none" stroke="#f39c12" stroke-width="3" stroke-dasharray="10 8">
    <animate attributeName="stroke-dashoffset" from="18" to="0" dur="0.9s" repeatCount="indefinite"/>
  </path>
  <text x="463" y="126" text-anchor="middle" fill="#e67e22" font-size="8" font-weight="600">HOT GAS ↑P</text>
</g>
<circle cx="460" cy="135" r="10" fill="#1a252f" stroke="#e67e22" stroke-width="2"
        id="hotspot-discharge" data-hotspot-x="460" data-hotspot-y="115"/>
<text x="460" y="139" text-anchor="middle" fill="#e67e22" font-size="9" font-weight="700">D</text>

<g>
  <path d="M490,254 H362 V405" fill="none" stroke="#7d5200" stroke-width="7" stroke-linecap="round" stroke-linejoin="round"/>
  <path d="M490,254 H362 V405" fill="none" stroke="#f39c12" stroke-width="5" stroke-linecap="round" stroke-linejoin="round"/>
  <path d="M490,254 H362 V405" fill="none" stroke="#f1c40f" stroke-width="3" stroke-dasharray="10 8" stroke-linejoin="round">
    <animate attributeName="stroke-dashoffset" from="18" to="0" dur="2.4s" repeatCount="indefinite"/>
  </path>
  <text x="430" y="246" text-anchor="middle" fill="#f39c12" font-size="8" font-weight="600">LIQUID ↑P</text>
</g>

<g filter="url(#glow-cold)">
  <path d="M362,453 V490 H105 V400" fill="none" stroke="#0a3a5e" stroke-width="7" stroke-linecap="round" stroke-linejoin="round"/>
  <path d="M362,453 V490 H105 V400" fill="none" stroke="#2980b9" stroke-width="5" stroke-linecap="round" stroke-linejoin="round"/>
  <path d="M362,453 V490 H105 V400" fill="none" stroke="#3498db" stroke-width="3" stroke-dasharray="10 8" stroke-linejoin="round">
    <animate attributeName="stroke-dashoffset" from="18" to="0" dur="2.6s" repeatCount="indefinite"/>
  </path>
  <text x="228" y="502" text-anchor="middle" fill="#2980b9" font-size="8" font-weight="600">COLD MIX ↓P</text>
</g>

<g>
  <path d="M195,150 H295" fill="none" stroke="#0a2030" stroke-width="7" stroke-linecap="round"/>
  <path d="M195,150 H295" fill="none" stroke="#85c1e9" stroke-width="5" stroke-linecap="round"/>
  <path d="M195,150 H295" fill="none" stroke="#aed6f1" stroke-width="3" stroke-dasharray="10 8">
    <animate attributeName="stroke-dashoffset" from="18" to="0" dur="1.2s" repeatCount="indefinite"/>
  </path>
  <text x="245" y="140" text-anchor="middle" fill="#85c1e9" font-size="8" font-weight="600">SUCTION GAS ↓P</text>
</g>

<!-- WATER CIRCUIT - HK2+DHW VARIANT -->

<!-- HK1 supply -->
<path d="M661,130 H758" fill="none" stroke="#8b1a1a" stroke-width="7" stroke-linecap="round"/>
<path d="M661,130 H758" fill="none" stroke="#e74c3c" stroke-width="5" stroke-linecap="round"/>
<path d="M661,130 H758" fill="none" stroke="#ff6b6b" stroke-width="3" stroke-dasharray="10 8">
  <animate attributeName="stroke-dashoffset" from="18" to="0" dur="1.8s" repeatCount="indefinite"/>
</path>
<text x="758" y="120" text-anchor="end" fill="#e74c3c" font-size="9" font-weight="600">→ HK1</text>

<!-- 3-way valve -->
<g filter="url(#shadow)">
  <circle cx="720" cy="130" r="13" fill="#1a252f" stroke="#4a9aca" stroke-width="2"/>
  <line x1="707" y1="130" x2="700" y2="130" stroke="#4a9aca" stroke-width="2.5"/>
  <line x1="733" y1="130" x2="740" y2="130" stroke="#4a9aca" stroke-width="2.5"/>
  <line x1="720" y1="143" x2="720" y2="150" stroke="#4a9aca" stroke-width="2.5"/>
  <text x="720" y="134" text-anchor="middle" fill="#4a9aca" font-size="9" font-weight="700">3V</text>
</g>

<!-- DHW branch down -->
<path d="M720,143 V168" fill="none" stroke="#8b1a1a" stroke-width="6" stroke-linecap="round"/>
<path d="M720,143 V168" fill="none" stroke="#e74c3c" stroke-width="4" stroke-linecap="round"/>
<path d="M720,143 V168" fill="none" stroke="#ff6b6b" stroke-width="2" stroke-dasharray="8 6">
  <animate attributeName="stroke-dashoffset" from="14" to="0" dur="0.8s" repeatCount="indefinite"/>
</path>
<!-- Route to DHW tank: right then up -->
<path d="M720,168 H763 V127" fill="none" stroke="#8b1a1a" stroke-width="5" stroke-linecap="round" stroke-linejoin="round"/>
<path d="M720,168 H763 V127" fill="none" stroke="#e74c3c" stroke-width="3" stroke-linecap="round" stroke-linejoin="round"/>
<path d="M720,168 H763 V127" fill="none" stroke="#ff6b6b" stroke-width="2" stroke-dasharray="8 6" stroke-linejoin="round">
  <animate attributeName="stroke-dashoffset" from="14" to="0" dur="1.0s" repeatCount="indefinite"/>
</path>

<!-- HK2 branch: splits from supply at x=748, goes through mixing valve down to Zone 2 -->
<line x1="748" y1="130" x2="748" y2="143" stroke="#8b1a1a" stroke-width="6"/>
<line x1="748" y1="130" x2="748" y2="143" stroke="#e74c3c" stroke-width="4"/>
<!-- Mixing valve -->
<circle cx="748" cy="158" r="13" fill="#1a252f" stroke="#a78bfa" stroke-width="2"/>
<text x="748" y="162" text-anchor="middle" fill="#a78bfa" font-size="7" font-weight="700">MV</text>
<!-- Zone 2 supply pipe -->
<path d="M748,171 V308" fill="none" stroke="#4a1f7a" stroke-width="6" stroke-linecap="round"/>
<path d="M748,171 V308" fill="none" stroke="#a78bfa" stroke-width="4" stroke-linecap="round"/>
<path d="M748,171 V308" fill="none" stroke="#c4b0ff" stroke-width="2" stroke-dasharray="10 8">
  <animate attributeName="stroke-dashoffset" from="18" to="0" dur="2.0s" repeatCount="indefinite"/>
</path>
<text x="758" y="240" fill="#a78bfa" font-size="8" font-weight="600">→ HK2</text>

<!-- HK1 return -->
<path d="M758,262 H661" fill="none" stroke="#0a1e30" stroke-width="7" stroke-linecap="round"/>
<path d="M758,262 H661" fill="none" stroke="#2980b9" stroke-width="5" stroke-linecap="round"/>
<path d="M758,262 H661" fill="none" stroke="#5dade2" stroke-width="3" stroke-dasharray="10 8">
  <animate attributeName="stroke-dashoffset" from="18" to="0" dur="1.8s" repeatCount="indefinite"/>
</path>
<text x="758" y="252" text-anchor="end" fill="#2980b9" font-size="9" font-weight="600">← HK1 RETURN</text>

<!-- Zone 2 return pipe -->
<path d="M748,448 V262" fill="none" stroke="#1a1a4a" stroke-width="5" stroke-linecap="round"/>
<path d="M748,448 V262" fill="none" stroke="#7b68ee" stroke-width="3" stroke-linecap="round"/>
<path d="M748,448 V262" fill="none" stroke="#a78bfa" stroke-width="2" stroke-dasharray="8 6">
  <animate attributeName="stroke-dashoffset" from="14" to="0" dur="2.2s" repeatCount="indefinite"/>
</path>

<!-- Temperature sensors -->
<circle cx="693" cy="130" r="10" fill="#1a252f" stroke="#e74c3c" stroke-width="2"
        id="hotspot-supply-temp" data-hotspot-x="693" data-hotspot-y="130"/>
<text x="693" y="134" text-anchor="middle" fill="#e74c3c" font-size="9" font-weight="700">T</text>

<circle cx="693" cy="262" r="10" fill="#1a252f" stroke="#2980b9" stroke-width="2"
        id="hotspot-return-temp" data-hotspot-x="693" data-hotspot-y="262"/>
<text x="693" y="266" text-anchor="middle" fill="#2980b9" font-size="9" font-weight="700">T</text>

<!-- ZONE 1 DISPLAY -->
<g filter="url(#shadow)">
  <rect x="661" y="200" width="80" height="55" rx="6" fill="#1a252f" stroke="#3d5166" stroke-width="1"/>
  <g fill="none" stroke="#e74c3c" stroke-width="1.5" opacity="0.55">
    <rect x="668" y="210" width="9" height="28" rx="1"/>
    <rect x="680" y="210" width="9" height="28" rx="1"/>
    <rect x="692" y="210" width="9" height="28" rx="1"/>
    <rect x="704" y="210" width="9" height="28" rx="1"/>
    <line x1="666" y1="214" x2="715" y2="214"/>
    <line x1="666" y1="234" x2="715" y2="234"/>
  </g>
  <rect x="717" y="205" width="28" height="44" rx="3" fill="transparent"
        id="hotspot-zone1-temp" data-hotspot-x="731" data-hotspot-y="227"/>
  <text x="728" y="220" text-anchor="middle" fill="#4a6a8a" font-size="7">HK1</text>
  <text x="728" y="232" text-anchor="middle" fill="#e74c3c" font-size="8">T°</text>
  <text x="728" y="244" text-anchor="middle" fill="#4a6a8a" font-size="6">room</text>
</g>

<!-- ZONE 2 BLOCK -->
<g id="zone2" filter="url(#shadow)">
  <rect x="661" y="308" width="80" height="140" rx="10" fill="url(#g-zone2)" stroke="#a78bfa" stroke-width="1.5"/>
  <text x="701" y="324" text-anchor="middle" fill="#a78bfa" font-size="10" font-weight="600">ZONE 2</text>
  <text x="701" y="335" text-anchor="middle" fill="#5a3a9a" font-size="7">floor heating</text>
  <g stroke="#a78bfa" stroke-width="1" fill="none" opacity="0.45">
    <path d="M669,348 Q681,344 693,348 Q705,352 717,348 Q729,344 737,348"/>
    <path d="M669,358 Q681,354 693,358 Q705,362 717,358 Q729,354 737,358"/>
    <path d="M669,368 Q681,364 693,368 Q705,372 717,368 Q729,364 737,368"/>
    <path d="M669,378 Q681,374 693,378 Q705,382 717,378 Q729,374 737,378"/>
    <path d="M669,388 Q681,384 693,388 Q705,392 717,388 Q729,384 737,388"/>
  </g>
  <!-- Zone 2 room temp sensor -->
  <circle cx="701" cy="413" r="12" fill="#1a252f" stroke="#a78bfa" stroke-width="2"
          id="hotspot-zone2-temp" data-hotspot-x="701" data-hotspot-y="413"/>
  <text x="701" y="417" text-anchor="middle" fill="#a78bfa" font-size="9" font-weight="700">T</text>
  <text x="701" y="440" text-anchor="middle" fill="#5a3a9a" font-size="7">HK2 room</text>
  <!-- Ports -->
  <rect x="740" y="308" width="9" height="13" rx="2" fill="#a78bfa" stroke="#5a3a9a" stroke-width="1"/>
  <rect x="740" y="435" width="9" height="13" rx="2" fill="#5a3a9a" stroke="#a78bfa" stroke-width="1"/>
</g>

<!-- DHW TANK -->
<g id="dhw-tank" filter="url(#shadow)">
  <rect x="762" y="108" width="123" height="155" rx="12" fill="url(#g-dhw)" stroke="#2c6e8a" stroke-width="1.5"/>
  <ellipse cx="823" cy="108" rx="61" ry="9" fill="#1e3a4a" stroke="#2c6e8a" stroke-width="1.5"/>
  <path d="M820,125 Q830,133 820,141 Q810,149 820,157 Q830,165 820,173 Q810,181 820,189 Q830,197 820,205"
        fill="none" stroke="#e74c3c" stroke-width="1.5" opacity="0.7"/>
  <path d="M820,125 Q830,133 820,141 Q810,149 820,157 Q830,165 820,173 Q810,181 820,189 Q830,197 820,205"
        fill="none" stroke="#e74c3c" stroke-width="1" stroke-dasharray="4 3" opacity="0.4">
    <animate attributeName="stroke-dashoffset" from="7" to="0" dur="1.0s" repeatCount="indefinite"/>
  </path>
  <rect x="775" y="128" width="42" height="78" rx="5" fill="#0d3d5c" opacity="0.5"/>
  <circle cx="823" cy="188" r="12" fill="#1a252f" stroke="#2c6e8a" stroke-width="2"
          id="hotspot-dhw-temp" data-hotspot-x="823" data-hotspot-y="188"/>
  <text x="823" y="192" text-anchor="middle" fill="#2c6e8a" font-size="9" font-weight="700">T</text>
  <text x="823" y="252" text-anchor="middle" fill="#2c6e8a" font-size="10" font-weight="600">DHW TANK</text>
  <rect x="751" y="120" width="12" height="14" rx="3" fill="#e74c3c" stroke="#c0392b" stroke-width="1"/>
  <rect x="751" y="238" width="12" height="14" rx="3" fill="#2980b9" stroke="#1a6ea8" stroke-width="1"/>
</g>
<!-- DHW return to main return at y=262 -->
<path d="M763,245 H720 V262" fill="none" stroke="#0a1e30" stroke-width="4" stroke-linecap="round" stroke-linejoin="round"/>
<path d="M763,245 H720 V262" fill="none" stroke="#2980b9" stroke-width="2.5" stroke-linecap="round" stroke-linejoin="round"/>
<path d="M763,245 H720 V262" fill="none" stroke="#5dade2" stroke-width="2" stroke-dasharray="6 5" stroke-linejoin="round">
  <animate attributeName="stroke-dashoffset" from="11" to="0" dur="1.2s" repeatCount="indefinite"/>
</path>

<!-- COMPRESSOR STATS BOX -->
<g id="comp-stats" filter="url(#shadow)">
  <rect x="762" y="295" width="123" height="165" rx="8" fill="#1a252f" stroke="#3d5166" stroke-width="1.5"/>
  <text x="823" y="312" text-anchor="middle" fill="#4a6a8a" font-size="8" letter-spacing="1">COMPRESSOR</text>
  <line x1="762" y1="318" x2="885" y2="318" stroke="#3d5166" stroke-width="1"/>
  <text x="823" y="333" text-anchor="middle" fill="#5a7a96" font-size="8">frequency</text>
  <rect x="772" y="337" width="102" height="26" rx="4" fill="#0f1923" stroke="#3d5166" stroke-width="1"
        id="hotspot-comp-freq" data-hotspot-x="823" data-hotspot-y="350"/>
  <text x="823" y="355" text-anchor="middle" fill="#bcbd22" font-size="8">Hz</text>
  <text x="823" y="378" text-anchor="middle" fill="#5a7a96" font-size="8">run hrs · starts</text>
  <rect x="769" y="382" width="48" height="22" rx="4" fill="#0f1923" stroke="#3d5166" stroke-width="1"
        id="hotspot-comp-hours" data-hotspot-x="793" data-hotspot-y="393"/>
  <rect x="824" y="382" width="48" height="22" rx="4" fill="#0f1923" stroke="#3d5166" stroke-width="1"
        id="hotspot-comp-starts" data-hotspot-x="848" data-hotspot-y="393"/>
  <text x="793" y="397" text-anchor="middle" fill="#5a7a96" font-size="7">h</text>
  <text x="848" y="397" text-anchor="middle" fill="#5a7a96" font-size="7">×</text>
  <line x1="762" y1="412" x2="885" y2="412" stroke="#3d5166" stroke-width="1"/>
  <text x="823" y="427" text-anchor="middle" fill="#5a7a96" font-size="8">defrost</text>
  <rect x="772" y="430" width="102" height="22" rx="4" fill="#0f1923" stroke="#3d5166" stroke-width="1"
        id="hotspot-defrost" data-hotspot-x="823" data-hotspot-y="441"/>
  <text x="823" y="445" text-anchor="middle" fill="#17a2b8" font-size="8">●</text>
  <text x="823" y="458" text-anchor="middle" fill="#3d5166" font-size="7">on · off</text>
</g>

<!-- SYSTEM BOX -->
<g filter="url(#shadow)">
  <rect x="15" y="510" width="183" height="60" rx="8" fill="#1a252f" stroke="#3d5166" stroke-width="1.5"/>
  <text x="107" y="526" text-anchor="middle" fill="#4a6a8a" font-size="8" letter-spacing="1">SYSTEM</text>
  <line x1="15" y1="531" x2="198" y2="531" stroke="#3d5166" stroke-width="1"/>
  <text x="57" y="545" text-anchor="middle" fill="#5a7a96" font-size="8">pressure</text>
  <text x="151" y="545" text-anchor="middle" fill="#5a7a96" font-size="8">flow rate</text>
  <rect x="22" y="548" width="70" height="18" rx="4" fill="#0f1923" stroke="#3d5166" stroke-width="1"
        id="hotspot-pressure" data-hotspot-x="57" data-hotspot-y="557"/>
  <rect x="100" y="548" width="90" height="18" rx="4" fill="#0f1923" stroke="#3d5166" stroke-width="1"
        id="hotspot-waterflow" data-hotspot-x="145" data-hotspot-y="557"/>
</g>

<!-- COP BOX -->
<g filter="url(#shadow)">
  <rect x="208" y="510" width="312" height="60" rx="8" fill="#1a252f" stroke="#3d5166" stroke-width="1.5"/>
  <text x="364" y="526" text-anchor="middle" fill="#4a6a8a" font-size="8" letter-spacing="1">EFFICIENCY</text>
  <line x1="208" y1="531" x2="520" y2="531" stroke="#3d5166" stroke-width="1"/>
  <text x="252" y="545" text-anchor="middle" fill="#5a7a96" font-size="8">COP live</text>
  <text x="364" y="545" text-anchor="middle" fill="#5a7a96" font-size="8">COP today</text>
  <text x="461" y="545" text-anchor="middle" fill="#5a7a96" font-size="8">SCOP</text>
  <rect x="218" y="548" width="68" height="18" rx="4" fill="#0f1923" stroke="#3d5166" stroke-width="1"
        id="hotspot-cop-live" data-hotspot-x="252" data-hotspot-y="557"/>
  <rect x="294" y="548" width="140" height="18" rx="4" fill="#0f1923" stroke="#3d5166" stroke-width="1"
        id="hotspot-cop-daily" data-hotspot-x="364" data-hotspot-y="557"/>
  <rect x="412" y="548" width="98" height="18" rx="4" fill="#0f1923" stroke="#3d5166" stroke-width="1"
        id="hotspot-scop" data-hotspot-x="461" data-hotspot-y="557"/>
</g>

<text x="640" y="478" text-anchor="middle" fill="#2c3e50" font-size="9" letter-spacing="1">A2W — ZONE 1 + ZONE 2 + DHW</text>
<text x="887" y="576" text-anchor="end" fill="#2c3e50" font-size="7.5" opacity="0.7">HeatPump Hero v0.3</text>
</svg>
