<?xml version="1.0" encoding="UTF-8"?>
<!--
  HeatPump Hero — A2W heat pump schematic: Zone1 + Zone2 + DHW + Buffer tank (animated)
  Version: v0.3  — most complete A2W variant with hydraulic separation

  Canvas: 900×620 — tallest variant to accommodate all circuits

  Buffer tank between condenser and zone circuits:
    · Buffer primary side (left): condenser supply/return at y=130/254
    · Buffer secondary side (right): zone supply/return at y=145/255
    · Buffer temperature sensor at center-body cx=680,cy=205
    · 3-way valve and DHW branch on secondary side
    · Zone 2 with mixing valve below Zone 1

  Hotspot anchors (data-hotspot-x / data-hotspot-y, px in 900×620 viewBox):
    mode(450,37)  outdoor-temp(115,50)  discharge(460,115)
    supply-temp(666,130)  return-temp(666,254)  buffer-temp(680,208)
    dhw-temp(823,188)
    zone1-temp(730,175)  zone2-temp(714,353)
    pressure(57,557)  waterflow(145,557)
    comp-freq(823,350)  comp-hours(793,393)  comp-starts(848,393)
    defrost(823,441)
    cop-live(252,597)  cop-daily(364,597)  scop(461,597)
-->
<svg xmlns="http://www.w3.org/2000/svg" viewBox="0 0 900 620"
     font-family="'Segoe UI', Arial, sans-serif">
<defs>
  <linearGradient id="g-dark" x1="0" y1="0" x2="0" y2="1">
    <stop offset="0%" stop-color="#2c3e50"/>
    <stop offset="100%" stop-color="#1a252f"/>
  </linearGradient>
  <linearGradient id="g-comp" x1="0" y1="0" x2="0" y2="1">
    <stop offset="0%" stop-color="#34495e"/>
    <stop offset="100%" stop-color="#243342"/>
  </linearGradient>
  <linearGradient id="g-hx-refrig" x1="0" y1="0" x2="0" y2="1">
    <stop offset="0%" stop-color="#3d2200"/>
    <stop offset="100%" stop-color="#1a1200"/>
  </linearGradient>
  <linearGradient id="g-hx-water" x1="0" y1="0" x2="0" y2="1">
    <stop offset="0%" stop-color="#001e33"/>
    <stop offset="100%" stop-color="#000e1a"/>
  </linearGradient>
  <linearGradient id="g-dhw" x1="0" y1="0" x2="0" y2="1">
    <stop offset="0%" stop-color="#1e3a4a"/>
    <stop offset="100%" stop-color="#0d1e26"/>
  </linearGradient>
  <linearGradient id="g-zone2" x1="0" y1="0" x2="0" y2="1">
    <stop offset="0%" stop-color="#1e1e3a"/>
    <stop offset="100%" stop-color="#0d0d20"/>
  </linearGradient>
  <linearGradient id="g-buffer" x1="0" y1="0" x2="1" y2="0">
    <stop offset="0%" stop-color="#1e2a3a"/>
    <stop offset="100%" stop-color="#0d1820"/>
  </linearGradient>
  <filter id="shadow" x="-8%" y="-8%" width="116%" height="116%">
    <feDropShadow dx="2" dy="3" stdDeviation="4" flood-color="#00000066"/>
  </filter>
  <filter id="glow-hot" x="-30%" y="-30%" width="160%" height="160%">
    <feGaussianBlur in="SourceGraphic" stdDeviation="2.5" result="b"/>
    <feMerge><feMergeNode in="b"/><feMergeNode in="SourceGraphic"/></feMerge>
  </filter>
  <filter id="glow-cold" x="-30%" y="-30%" width="160%" height="160%">
    <feGaussianBlur in="SourceGraphic" stdDeviation="2" result="b"/>
    <feMerge><feMergeNode in="b"/><feMergeNode in="SourceGraphic"/></feMerge>
  </filter>
  <marker id="m-supply" markerWidth="7" markerHeight="7" refX="6" refY="3" orient="auto">
    <path d="M0,0 L0,6 L7,3 z" fill="#e74c3c"/>
  </marker>
  <marker id="m-return" markerWidth="7" markerHeight="7" refX="6" refY="3" orient="auto">
    <path d="M0,0 L0,6 L7,3 z" fill="#2980b9"/>
  </marker>
</defs>

<rect width="900" height="620" fill="#0f1923"/>
<g stroke="#ffffff05" stroke-width="1">
  <line x1="0" y1="88" x2="900" y2="88"/>
  <line x1="0" y1="310" x2="900" y2="310"/>
  <line x1="0" y1="460" x2="900" y2="460"/>
  <line x1="195" y1="0" x2="195" y2="620"/>
  <line x1="490" y1="0" x2="490" y2="460"/>
  <line x1="650" y1="0" x2="650" y2="460"/>
  <line x1="710" y1="0" x2="710" y2="460"/>
  <line x1="762" y1="0" x2="762" y2="460"/>
</g>

<!-- MODE BAR -->
<g filter="url(#shadow)">
  <rect x="285" y="18" width="330" height="40" rx="8" fill="#1a252f" stroke="#3d5166" stroke-width="1.5"/>
  <text x="450" y="32" text-anchor="middle" fill="#4a6a8a" font-size="8" letter-spacing="1.5">OPERATING MODE</text>
  <rect x="305" y="36" width="290" height="16" rx="3" fill="transparent"
        id="hotspot-mode" data-hotspot-x="450" data-hotspot-y="44"/>
  <text x="450" y="48" text-anchor="middle" fill="#8ca8c0" font-size="12" font-weight="600">Heating</text>
</g>

<!-- OUTDOOR TEMP -->
<g filter="url(#shadow)">
  <rect x="15" y="18" width="183" height="56" rx="8" fill="#1a252f" stroke="#3d5166" stroke-width="1.5"/>
  <text x="107" y="32" text-anchor="middle" fill="#4a6a8a" font-size="8" letter-spacing="1">OUTDOOR TEMPERATURE</text>
  <line x1="15" y1="38" x2="198" y2="38" stroke="#3d5166" stroke-width="1"/>
  <rect x="28" y="42" width="5" height="17" rx="2.5" fill="#e0a800"/>
  <circle cx="30.5" cy="62" r="6" fill="#e0a800"/>
  <rect x="46" y="42" width="143" height="26" rx="4" fill="#0f1923" stroke="#3d5166" stroke-width="1"
        id="hotspot-outdoor-temp" data-hotspot-x="117" data-hotspot-y="55"/>
  <text x="117" y="60" text-anchor="middle" fill="#e0a800" font-size="17" font-weight="700">T°</text>
</g>

<!-- OUTDOOR UNIT -->
<g id="outdoor-unit" filter="url(#shadow)">
  <rect x="15" y="88" width="180" height="370" rx="12" fill="url(#g-dark)" stroke="#3d5166" stroke-width="1.5"/>
  <circle cx="105" cy="225" r="68" fill="#1a2733" stroke="#3d5166" stroke-width="1.5"/>
  <g transform="translate(105,225)">
    <g>
      <animateTransform attributeName="transform" type="rotate"
        from="0" to="360" dur="5s" repeatCount="indefinite" additive="sum"/>
      <path d="M0,-60 C17,-44 19,-24 0,0 C-19,-24 -17,-44 0,-60" fill="#3d5166" opacity="0.95"/>
      <path d="M52,-30 C34,-9 15,-5 0,0 C9,-23 31,-37 52,-30" fill="#3d5166" opacity="0.95"/>
      <path d="M52,30 C26,19 11,9 0,0 C21,5 39,15 52,30" fill="#3d5166" opacity="0.95"/>
      <path d="M0,60 C-17,44 -19,24 0,0 C19,24 17,44 0,60" fill="#3d5166" opacity="0.95"/>
      <path d="M-52,30 C-29,19 -11,9 0,0 C-9,23 -31,37 -52,30" fill="#3d5166" opacity="0.95"/>
      <path d="M-52,-30 C-26,-19 -11,-9 0,0 C-21,-5 -39,-15 -52,-30" fill="#3d5166" opacity="0.95"/>
    </g>
    <circle r="10" fill="#243342" stroke="#4a6a8a" stroke-width="1.5"/>
    <circle r="4" fill="#4a6a8a"/>
  </g>
  <rect x="25" y="308" width="160" height="128" rx="6" fill="#141f29" stroke="#3d5166" stroke-width="1"/>
  <g stroke="#2c3e50" stroke-width="1">
    <line x1="30" y1="316" x2="180" y2="316"/><line x1="30" y1="324" x2="180" y2="324"/>
    <line x1="30" y1="332" x2="180" y2="332"/><line x1="30" y1="340" x2="180" y2="340"/>
    <line x1="30" y1="348" x2="180" y2="348"/><line x1="30" y1="356" x2="180" y2="356"/>
    <line x1="30" y1="364" x2="180" y2="364"/><line x1="30" y1="372" x2="180" y2="372"/>
    <line x1="30" y1="380" x2="180" y2="380"/><line x1="30" y1="388" x2="180" y2="388"/>
    <line x1="30" y1="396" x2="180" y2="396"/><line x1="30" y1="404" x2="180" y2="404"/>
    <line x1="30" y1="412" x2="180" y2="412"/>
  </g>
  <g stroke="#1a6ea8" stroke-width="2" opacity="0.5">
    <line x1="55" y1="308" x2="55" y2="436"/><line x1="82" y1="308" x2="82" y2="436"/>
    <line x1="109" y1="308" x2="109" y2="436"/><line x1="136" y1="308" x2="136" y2="436"/>
    <line x1="163" y1="308" x2="163" y2="436"/>
  </g>
  <rect x="188" y="144" width="9" height="13" rx="2" fill="#85c1e9" stroke="#5a9fc0" stroke-width="1"/>
  <rect x="188" y="388" width="9" height="13" rx="2" fill="#1a6ea8" stroke="#2980b9" stroke-width="1"/>
  <text x="105" y="448" text-anchor="middle" fill="#8ca8c0" font-size="11" font-weight="600" letter-spacing="0.5">OUTDOOR UNIT</text>
  <text x="105" y="461" text-anchor="middle" fill="#4a6a8a" font-size="9">evaporator · fan</text>
</g>

<!-- COMPRESSOR -->
<g id="compressor" filter="url(#shadow)">
  <ellipse cx="360" cy="198" rx="65" ry="17" fill="#1e2d3d" stroke="#3d5166" stroke-width="1.5"/>
  <rect x="295" y="108" width="130" height="90" fill="url(#g-comp)" stroke="#3d5166" stroke-width="1.5"/>
  <ellipse cx="360" cy="108" rx="65" ry="17" fill="#3d5166" stroke="#4a6a8a" stroke-width="1.5"/>
  <ellipse cx="360" cy="155" rx="32" ry="32" fill="none" stroke="#4a6a8a" stroke-width="1.5" stroke-dasharray="5 3"/>
  <path d="M360,145 C365,150 368,155 360,162 C352,155 355,150 360,145" fill="none" stroke="#5a7a96" stroke-width="1.5"/>
  <circle cx="360" cy="155" r="7" fill="#1a252f" stroke="#4a6a8a" stroke-width="1.5"/>
  <circle cx="360" cy="155" r="3" fill="#4a6a8a"/>
  <line x1="360" y1="148" x2="360" y2="130" stroke="#5a7a96" stroke-width="1.5" opacity="0.6">
    <animate attributeName="y2" values="130;136;130" dur="0.4s" repeatCount="indefinite"/>
  </line>
  <rect x="283" y="127" width="13" height="16" rx="3" fill="#85c1e9" stroke="#5a9fc0" stroke-width="1"/>
  <rect x="424" y="127" width="13" height="16" rx="3" fill="#e67e22" stroke="#d35400" stroke-width="1"/>
  <text x="360" y="187" text-anchor="middle" fill="#8ca8c0" font-size="10" font-weight="600" letter-spacing="0.5">COMPRESSOR</text>
</g>

<!-- CONDENSER -->
<g id="condenser" filter="url(#shadow)">
  <rect x="490" y="108" width="160" height="165" rx="10" fill="url(#g-dark)" stroke="#3d5166" stroke-width="1.5"/>
  <rect x="498" y="116" width="72" height="149" rx="4" fill="url(#g-hx-refrig)" stroke="#3d5166" stroke-width="1"/>
  <g stroke="#4d2800" stroke-width="1">
    <line x1="508" y1="118" x2="508" y2="263"/><line x1="517" y1="118" x2="517" y2="263"/>
    <line x1="526" y1="118" x2="526" y2="263"/><line x1="535" y1="118" x2="535" y2="263"/>
    <line x1="544" y1="118" x2="544" y2="263"/><line x1="553" y1="118" x2="553" y2="263"/>
    <line x1="562" y1="118" x2="562" y2="263"/>
  </g>
  <line x1="574" y1="116" x2="574" y2="265" stroke="#4a6a8a" stroke-width="1.5" stroke-dasharray="4 3"/>
  <rect x="578" y="116" width="64" height="149" rx="4" fill="url(#g-hx-water)" stroke="#3d5166" stroke-width="1"/>
  <g stroke="#00223d" stroke-width="1">
    <line x1="587" y1="118" x2="587" y2="263"/><line x1="596" y1="118" x2="596" y2="263"/>
    <line x1="605" y1="118" x2="605" y2="263"/><line x1="614" y1="118" x2="614" y2="263"/>
    <line x1="623" y1="118" x2="623" y2="263"/><line x1="632" y1="118" x2="632" y2="263"/>
  </g>
  <text x="533" y="105" text-anchor="middle" fill="#7d4e1a" font-size="8" font-weight="600">REFRIG.</text>
  <text x="612" y="105" text-anchor="middle" fill="#1a5276" font-size="8" font-weight="600">WATER</text>
  <rect x="479" y="122" width="12" height="16" rx="3" fill="#e67e22" stroke="#d35400" stroke-width="1"/>
  <rect x="479" y="246" width="12" height="16" rx="3" fill="#f39c12" stroke="#d68910" stroke-width="1"/>
  <rect x="649" y="122" width="12" height="16" rx="3" fill="#e74c3c" stroke="#c0392b" stroke-width="1"/>
  <rect x="649" y="246" width="12" height="16" rx="3" fill="#2980b9" stroke="#1a6ea8" stroke-width="1"/>
  <text x="570" y="285" text-anchor="middle" fill="#5a7a96" font-size="10" font-weight="600" letter-spacing="0.3">HEAT EXCHANGER</text>
</g>

<!-- EXPANSION VALVE -->
<g id="expansion-valve" filter="url(#shadow)">
  <rect x="315" y="450" width="94" height="70" rx="8" fill="#1a252f" stroke="#3d5166" stroke-width="1.5"/>
  <line x1="362" y1="450" x2="362" y2="463" stroke="#f39c12" stroke-width="4" stroke-linecap="round"/>
  <polygon points="338,463 386,463 362,485" fill="#243342" stroke="#f39c12" stroke-width="1.5"/>
  <polygon points="338,485 386,485 362,463" fill="#131e27" stroke="#2980b9" stroke-width="1.5"/>
  <line x1="362" y1="485" x2="362" y2="498" stroke="#2980b9" stroke-width="4" stroke-linecap="round"/>
  <line x1="386" y1="473" x2="400" y2="473" stroke="#4a6a8a" stroke-width="1.5"/>
  <circle cx="406" cy="473" r="6" fill="#1a252f" stroke="#4a6a8a" stroke-width="1.5"/>
  <text x="362" y="510" text-anchor="middle" fill="#5a7a96" font-size="9" font-weight="600">EXP. VALVE</text>
</g>

<!-- REFRIGERANT CIRCUIT -->
<g filter="url(#glow-hot)">
  <path d="M437,135 H490" fill="none" stroke="#8b4800" stroke-width="7" stroke-linecap="round"/>
  <path d="M437,135 H490" fill="none" stroke="#e67e22" stroke-width="5" stroke-linecap="round"/>
  <path d="M437,135 H490" fill="none" stroke="#f39c12" stroke-width="3" stroke-dasharray="10 8">
    <animate attributeName="stroke-dashoffset" from="18" to="0" dur="0.9s" repeatCount="indefinite"/>
  </path>
  <text x="463" y="126" text-anchor="middle" fill="#e67e22" font-size="8" font-weight="600">HOT GAS ↑P</text>
</g>
<circle cx="460" cy="135" r="10" fill="#1a252f" stroke="#e67e22" stroke-width="2"
        id="hotspot-discharge" data-hotspot-x="460" data-hotspot-y="115"/>
<text x="460" y="139" text-anchor="middle" fill="#e67e22" font-size="9" font-weight="700">D</text>

<g>
  <path d="M490,254 H362 V450" fill="none" stroke="#7d5200" stroke-width="7" stroke-linecap="round" stroke-linejoin="round"/>
  <path d="M490,254 H362 V450" fill="none" stroke="#f39c12" stroke-width="5" stroke-linecap="round" stroke-linejoin="round"/>
  <path d="M490,254 H362 V450" fill="none" stroke="#f1c40f" stroke-width="3" stroke-dasharray="10 8" stroke-linejoin="round">
    <animate attributeName="stroke-dashoffset" from="18" to="0" dur="2.4s" repeatCount="indefinite"/>
  </path>
  <text x="430" y="246" text-anchor="middle" fill="#f39c12" font-size="8" font-weight="600">LIQUID ↑P</text>
</g>

<g filter="url(#glow-cold)">
  <path d="M362,498 V540 H105 V436" fill="none" stroke="#0a3a5e" stroke-width="7" stroke-linecap="round" stroke-linejoin="round"/>
  <path d="M362,498 V540 H105 V436" fill="none" stroke="#2980b9" stroke-width="5" stroke-linecap="round" stroke-linejoin="round"/>
  <path d="M362,498 V540 H105 V436" fill="none" stroke="#3498db" stroke-width="3" stroke-dasharray="10 8" stroke-linejoin="round">
    <animate attributeName="stroke-dashoffset" from="18" to="0" dur="2.6s" repeatCount="indefinite"/>
  </path>
  <text x="228" y="552" text-anchor="middle" fill="#2980b9" font-size="8" font-weight="600">COLD MIX ↓P</text>
</g>

<g>
  <path d="M195,150 H295" fill="none" stroke="#0a2030" stroke-width="7" stroke-linecap="round"/>
  <path d="M195,150 H295" fill="none" stroke="#85c1e9" stroke-width="5" stroke-linecap="round"/>
  <path d="M195,150 H295" fill="none" stroke="#aed6f1" stroke-width="3" stroke-dasharray="10 8">
    <animate attributeName="stroke-dashoffset" from="18" to="0" dur="1.2s" repeatCount="indefinite"/>
  </path>
  <text x="245" y="140" text-anchor="middle" fill="#85c1e9" font-size="8" font-weight="600">SUCTION GAS ↓P</text>
</g>

<!-- ═══════════════════ BUFFER TANK (hydraulic separator) ═════════ -->
<!-- Primary side pipes: condenser ↔ buffer left -->
<path d="M661,130 H655" fill="none" stroke="#8b1a1a" stroke-width="6" stroke-linecap="round"/>
<path d="M661,130 H655" fill="none" stroke="#e74c3c" stroke-width="4" stroke-linecap="round"/>

<path d="M655,254 H661" fill="none" stroke="#0a1e30" stroke-width="6" stroke-linecap="round"/>
<path d="M655,254 H661" fill="none" stroke="#2980b9" stroke-width="4" stroke-linecap="round"/>

<!-- Primary-side temperature sensors (on condenser–buffer connections) -->
<circle cx="666" cy="130" r="10" fill="#1a252f" stroke="#e74c3c" stroke-width="2"
        id="hotspot-supply-temp" data-hotspot-x="666" data-hotspot-y="130"/>
<text x="666" y="134" text-anchor="middle" fill="#e74c3c" font-size="9" font-weight="700">T</text>

<circle cx="666" cy="254" r="10" fill="#1a252f" stroke="#2980b9" stroke-width="2"
        id="hotspot-return-temp" data-hotspot-x="666" data-hotspot-y="254"/>
<text x="666" y="258" text-anchor="middle" fill="#2980b9" font-size="9" font-weight="700">T</text>

<!-- Buffer tank body -->
<g id="buffer-tank" filter="url(#shadow)">
  <rect x="657" y="108" width="48" height="185" rx="10"
        fill="url(#g-buffer)" stroke="#e8a87c" stroke-width="1.5"/>
  <!-- Cap top -->
  <ellipse cx="681" cy="108" rx="24" ry="7" fill="#1e2a3a" stroke="#e8a87c" stroke-width="1.5"/>
  <!-- Vertical stratification layers (temp gradient visualisation) -->
  <rect x="659" y="110" width="44" height="40" rx="2" fill="#4a2200" opacity="0.3"/>
  <rect x="659" y="150" width="44" height="40" rx="2" fill="#3a1a00" opacity="0.2"/>
  <rect x="659" y="190" width="44" height="40" rx="2" fill="#1a3a5e" opacity="0.2"/>
  <rect x="659" y="230" width="44" height="63" rx="2" fill="#0a1e33" opacity="0.25"/>
  <!-- Layer dividers -->
  <line x1="659" y1="150" x2="705" y2="150" stroke="#e8a87c" stroke-width="0.5" opacity="0.3"/>
  <line x1="659" y1="190" x2="705" y2="190" stroke="#5a8a9a" stroke-width="0.5" opacity="0.3"/>
  <line x1="659" y1="230" x2="705" y2="230" stroke="#2980b9" stroke-width="0.5" opacity="0.3"/>
  <!-- Primary ports (left side) -->
  <rect x="648" y="122" width="10" height="13" rx="2" fill="#e74c3c" stroke="#c0392b" stroke-width="1"/>
  <rect x="648" y="247" width="10" height="13" rx="2" fill="#2980b9" stroke="#1a6ea8" stroke-width="1"/>
  <!-- Secondary ports (right side) -->
  <rect x="703" y="138" width="10" height="13" rx="2" fill="#e74c3c" stroke="#c0392b" stroke-width="1"/>
  <rect x="703" y="262" width="10" height="13" rx="2" fill="#2980b9" stroke="#1a6ea8" stroke-width="1"/>
  <!-- Buffer temperature sensor (mid-tank) -->
  <circle cx="681" cy="208" r="12" fill="#1a252f" stroke="#e8a87c" stroke-width="2"
          id="hotspot-buffer-temp" data-hotspot-x="681" data-hotspot-y="208"/>
  <text x="681" y="212" text-anchor="middle" fill="#e8a87c" font-size="9" font-weight="700">T</text>
  <!-- Labels -->
  <text x="681" y="305" text-anchor="middle" fill="#e8a87c" font-size="9" font-weight="600">BUFFER</text>
  <text x="681" y="316" text-anchor="middle" fill="#5a4a30" font-size="7">thermal storage</text>
</g>

<!-- Secondary side pipes: buffer right ↔ zone circuit -->
<path d="M713,144 H760" fill="none" stroke="#8b1a1a" stroke-width="7" stroke-linecap="round"/>
<path d="M713,144 H760" fill="none" stroke="#e74c3c" stroke-width="5" stroke-linecap="round"/>
<path d="M713,144 H760" fill="none" stroke="#ff6b6b" stroke-width="3" stroke-dasharray="10 8">
  <animate attributeName="stroke-dashoffset" from="18" to="0" dur="1.8s" repeatCount="indefinite"/>
</path>

<path d="M760,268 H713" fill="none" stroke="#0a1e30" stroke-width="7" stroke-linecap="round"/>
<path d="M760,268 H713" fill="none" stroke="#2980b9" stroke-width="5" stroke-linecap="round"/>
<path d="M760,268 H713" fill="none" stroke="#5dade2" stroke-width="3" stroke-dasharray="10 8">
  <animate attributeName="stroke-dashoffset" from="18" to="0" dur="1.8s" repeatCount="indefinite"/>
</path>

<!-- 3-way valve on secondary supply -->
<g filter="url(#shadow)">
  <circle cx="748" cy="144" r="13" fill="#1a252f" stroke="#4a9aca" stroke-width="2"/>
  <line x1="735" y1="144" x2="728" y2="144" stroke="#4a9aca" stroke-width="2.5"/>
  <line x1="761" y1="144" x2="768" y2="144" stroke="#4a9aca" stroke-width="2.5"/>
  <line x1="748" y1="157" x2="748" y2="165" stroke="#4a9aca" stroke-width="2.5"/>
  <text x="748" y="148" text-anchor="middle" fill="#4a9aca" font-size="8" font-weight="700">3V</text>
</g>

<!-- DHW branch from 3-way valve -->
<path d="M748,157 V172" fill="none" stroke="#8b1a1a" stroke-width="5" stroke-linecap="round"/>
<path d="M748,157 V172" fill="none" stroke="#e74c3c" stroke-width="3" stroke-linecap="round"/>
<path d="M748,172 H762 V127" fill="none" stroke="#8b1a1a" stroke-width="4" stroke-linecap="round" stroke-linejoin="round"/>
<path d="M748,172 H762 V127" fill="none" stroke="#e74c3c" stroke-width="3" stroke-linecap="round" stroke-linejoin="round"/>
<path d="M748,172 H762 V127" fill="none" stroke="#ff6b6b" stroke-width="2" stroke-dasharray="8 6" stroke-linejoin="round">
  <animate attributeName="stroke-dashoffset" from="14" to="0" dur="1.0s" repeatCount="indefinite"/>
</path>

<!-- HK1 branch: continues right from valve -->
<text x="770" y="134" fill="#e74c3c" font-size="9" font-weight="600">→ HK1</text>

<!-- Zone 1 temp display -->
<g filter="url(#shadow)">
  <rect x="762" y="108" width="123" height="155" rx="12" fill="url(#g-dhw)" stroke="#2c6e8a" stroke-width="1.5"/>
  <ellipse cx="823" cy="108" rx="61" ry="9" fill="#1e3a4a" stroke="#2c6e8a" stroke-width="1.5"/>
  <path d="M820,125 Q830,133 820,141 Q810,149 820,157 Q830,165 820,173 Q810,181 820,189 Q830,197 820,205"
        fill="none" stroke="#e74c3c" stroke-width="1.5" opacity="0.7"/>
  <path d="M820,125 Q830,133 820,141 Q810,149 820,157 Q830,165 820,173 Q810,181 820,189 Q830,197 820,205"
        fill="none" stroke="#e74c3c" stroke-width="1" stroke-dasharray="4 3" opacity="0.4">
    <animate attributeName="stroke-dashoffset" from="7" to="0" dur="1.0s" repeatCount="indefinite"/>
  </path>
  <rect x="775" y="128" width="42" height="78" rx="5" fill="#0d3d5c" opacity="0.5"/>
  <circle cx="823" cy="188" r="12" fill="#1a252f" stroke="#2c6e8a" stroke-width="2"
          id="hotspot-dhw-temp" data-hotspot-x="823" data-hotspot-y="188"/>
  <text x="823" y="192" text-anchor="middle" fill="#2c6e8a" font-size="9" font-weight="700">T</text>
  <text x="823" y="252" text-anchor="middle" fill="#2c6e8a" font-size="10" font-weight="600">DHW TANK</text>
  <rect x="751" y="120" width="12" height="14" rx="3" fill="#e74c3c" stroke="#c0392b" stroke-width="1"/>
  <rect x="751" y="238" width="12" height="14" rx="3" fill="#2980b9" stroke="#1a6ea8" stroke-width="1"/>
</g>
<!-- DHW return to secondary return bus -->
<path d="M763,245 H748 V268" fill="none" stroke="#0a1e30" stroke-width="4" stroke-linecap="round" stroke-linejoin="round"/>
<path d="M763,245 H748 V268" fill="none" stroke="#2980b9" stroke-width="2.5" stroke-linecap="round" stroke-linejoin="round"/>

<!-- HK2 branch: mixing valve on secondary supply then down to Zone 2 -->
<line x1="736" y1="144" x2="736" y2="162" stroke="#8b1a1a" stroke-width="5"/>
<line x1="736" y1="144" x2="736" y2="162" stroke="#e74c3c" stroke-width="3"/>
<circle cx="736" cy="175" r="12" fill="#1a252f" stroke="#a78bfa" stroke-width="2"/>
<text x="736" y="179" text-anchor="middle" fill="#a78bfa" font-size="7" font-weight="700">MV</text>
<path d="M736,187 V308" fill="none" stroke="#4a1f7a" stroke-width="6" stroke-linecap="round"/>
<path d="M736,187 V308" fill="none" stroke="#a78bfa" stroke-width="4" stroke-linecap="round"/>
<path d="M736,187 V308" fill="none" stroke="#c4b0ff" stroke-width="2" stroke-dasharray="10 8">
  <animate attributeName="stroke-dashoffset" from="18" to="0" dur="2.0s" repeatCount="indefinite"/>
</path>
<text x="745" y="248" fill="#a78bfa" font-size="8" font-weight="600">→ HK2</text>

<!-- HK1 room temp label area -->
<g filter="url(#shadow)">
  <rect x="762" y="295" width="123" height="60" rx="8" fill="#1a252f" stroke="#3d5166" stroke-width="1"/>
  <g fill="none" stroke="#e74c3c" stroke-width="1.5" opacity="0.5">
    <rect x="770" y="305" width="8" height="28" rx="1"/>
    <rect x="781" y="305" width="8" height="28" rx="1"/>
    <rect x="792" y="305" width="8" height="28" rx="1"/>
    <rect x="803" y="305" width="8" height="28" rx="1"/>
    <rect x="814" y="305" width="8" height="28" rx="1"/>
    <line x1="768" y1="309" x2="824" y2="309"/>
    <line x1="768" y1="329" x2="824" y2="329"/>
  </g>
  <rect x="830" y="300" width="48" height="46" rx="4" fill="transparent"
        id="hotspot-zone1-temp" data-hotspot-x="854" data-hotspot-y="323"/>
  <text x="854" y="318" text-anchor="middle" fill="#4a6a8a" font-size="7">ZONE 1</text>
  <text x="854" y="329" text-anchor="middle" fill="#e74c3c" font-size="8">room T°</text>
</g>

<!-- Zone 2 block -->
<g id="zone2" filter="url(#shadow)">
  <rect x="714" y="308" width="80" height="140" rx="10" fill="url(#g-zone2)" stroke="#a78bfa" stroke-width="1.5"/>
  <text x="754" y="324" text-anchor="middle" fill="#a78bfa" font-size="10" font-weight="600">ZONE 2</text>
  <text x="754" y="335" text-anchor="middle" fill="#5a3a9a" font-size="7">floor heating</text>
  <g stroke="#a78bfa" stroke-width="1" fill="none" opacity="0.45">
    <path d="M722,348 Q734,344 746,348 Q758,352 770,348 Q782,344 787,348"/>
    <path d="M722,358 Q734,354 746,358 Q758,362 770,358 Q782,354 787,358"/>
    <path d="M722,368 Q734,364 746,368 Q758,372 770,368 Q782,364 787,368"/>
    <path d="M722,378 Q734,374 746,378 Q758,382 770,378 Q782,374 787,378"/>
    <path d="M722,388 Q734,384 746,388 Q758,392 770,388 Q782,384 787,388"/>
  </g>
  <circle cx="754" cy="413" r="12" fill="#1a252f" stroke="#a78bfa" stroke-width="2"
          id="hotspot-zone2-temp" data-hotspot-x="754" data-hotspot-y="413"/>
  <text x="754" y="417" text-anchor="middle" fill="#a78bfa" font-size="9" font-weight="700">T</text>
  <text x="754" y="440" text-anchor="middle" fill="#5a3a9a" font-size="7">HK2 room</text>
  <rect x="793" y="308" width="9" height="13" rx="2" fill="#a78bfa" stroke="#5a3a9a" stroke-width="1"/>
  <rect x="793" y="435" width="9" height="13" rx="2" fill="#5a3a9a" stroke="#a78bfa" stroke-width="1"/>
</g>

<!-- Zone 2 return back to secondary return bus -->
<path d="M736,448 V268" fill="none" stroke="#1a1a4a" stroke-width="5" stroke-linecap="round"/>
<path d="M736,448 V268" fill="none" stroke="#7b68ee" stroke-width="3" stroke-linecap="round"/>
<path d="M736,448 V268" fill="none" stroke="#a78bfa" stroke-width="2" stroke-dasharray="8 6">
  <animate attributeName="stroke-dashoffset" from="14" to="0" dur="2.2s" repeatCount="indefinite"/>
</path>

<!-- COMPRESSOR STATS BOX -->
<g id="comp-stats" filter="url(#shadow)">
  <rect x="762" y="365" width="123" height="95" rx="8" fill="#1a252f" stroke="#3d5166" stroke-width="1.5"/>
  <text x="823" y="381" text-anchor="middle" fill="#4a6a8a" font-size="8" letter-spacing="1">COMPRESSOR</text>
  <line x1="762" y1="387" x2="885" y2="387" stroke="#3d5166" stroke-width="1"/>
  <text x="823" y="400" text-anchor="middle" fill="#5a7a96" font-size="8">frequency</text>
  <rect x="772" y="404" width="102" height="22" rx="4" fill="#0f1923" stroke="#3d5166" stroke-width="1"
        id="hotspot-comp-freq" data-hotspot-x="823" data-hotspot-y="415"/>
  <text x="823" y="420" text-anchor="middle" fill="#bcbd22" font-size="8">Hz</text>
  <text x="823" y="440" text-anchor="middle" fill="#5a7a96" font-size="7">hrs · starts · defrost</text>
  <rect x="769" y="444" width="36" height="10" rx="3" fill="#0f1923" stroke="#3d5166" stroke-width="1"
        id="hotspot-comp-hours" data-hotspot-x="787" data-hotspot-y="449"/>
  <rect x="810" y="444" width="36" height="10" rx="3" fill="#0f1923" stroke="#3d5166" stroke-width="1"
        id="hotspot-comp-starts" data-hotspot-x="828" data-hotspot-y="449"/>
  <rect x="851" y="444" width="28" height="10" rx="3" fill="#0f1923" stroke="#3d5166" stroke-width="1"
        id="hotspot-defrost" data-hotspot-x="865" data-hotspot-y="449"/>
</g>

<!-- SYSTEM + COP BOX -->
<g filter="url(#shadow)">
  <rect x="15" y="572" width="183" height="40" rx="8" fill="#1a252f" stroke="#3d5166" stroke-width="1.5"/>
  <text x="107" y="586" text-anchor="middle" fill="#4a6a8a" font-size="8" letter-spacing="1">SYSTEM</text>
  <line x1="15" y1="590" x2="198" y2="590" stroke="#3d5166" stroke-width="1"/>
  <rect x="22" y="594" width="70" height="14" rx="3" fill="#0f1923" stroke="#3d5166" stroke-width="1"
        id="hotspot-pressure" data-hotspot-x="57" data-hotspot-y="601"/>
  <rect x="100" y="594" width="90" height="14" rx="3" fill="#0f1923" stroke="#3d5166" stroke-width="1"
        id="hotspot-waterflow" data-hotspot-x="145" data-hotspot-y="601"/>
  <text x="57" y="610" text-anchor="middle" fill="#4a9aca" font-size="7">bar</text>
  <text x="145" y="610" text-anchor="middle" fill="#4a9aca" font-size="7">L/min</text>
</g>

<g filter="url(#shadow)">
  <rect x="208" y="572" width="312" height="40" rx="8" fill="#1a252f" stroke="#3d5166" stroke-width="1.5"/>
  <text x="364" y="586" text-anchor="middle" fill="#4a6a8a" font-size="8" letter-spacing="1">EFFICIENCY</text>
  <line x1="208" y1="590" x2="520" y2="590" stroke="#3d5166" stroke-width="1"/>
  <rect x="218" y="594" width="68" height="14" rx="3" fill="#0f1923" stroke="#3d5166" stroke-width="1"
        id="hotspot-cop-live" data-hotspot-x="252" data-hotspot-y="601"/>
  <rect x="294" y="594" width="140" height="14" rx="3" fill="#0f1923" stroke="#3d5166" stroke-width="1"
        id="hotspot-cop-daily" data-hotspot-x="364" data-hotspot-y="601"/>
  <rect x="412" y="594" width="98" height="14" rx="3" fill="#0f1923" stroke="#3d5166" stroke-width="1"
        id="hotspot-scop" data-hotspot-x="461" data-hotspot-y="601"/>
  <text x="252" y="600" text-anchor="middle" fill="#5a7a96" font-size="6">COP live</text>
  <text x="364" y="600" text-anchor="middle" fill="#5a7a96" font-size="6">COP today</text>
  <text x="461" y="600" text-anchor="middle" fill="#5a7a96" font-size="6">SCOP</text>
</g>

<text x="632" y="548" text-anchor="middle" fill="#2c3e50" font-size="9" letter-spacing="1">A2W — ZONE 1 + ZONE 2 + DHW + BUFFER</text>
<text x="887" y="616" text-anchor="end" fill="#2c3e50" font-size="7.5" opacity="0.7">HeatPump Hero v0.3</text>
</svg>
