<?xml version="1.0" encoding="UTF-8"?>
<!--
  HeatPump Hero — Schema HK1 (no buffer, no DHW)              v0.6
  ====================================================================
  Style: white line-art, hollow-arrow pipes, SMIL flow animation.
  Refrigerant cycle dominant; hydraulic side shown right of HX.

  Refrigerant flow (clockwise race-track):
    Evap top-right  → SUCTION (cool gas, blue)  → Compressor left
    Compressor right → DISCHARGE (hot gas, red) → HX top-left
    HX bottom-left  → LIQUID (amber)            → EEV right
    EEV left        → COLD MIX (blue)           → Evap bottom-right

  Water side (HK1 only):
    HX right (water out, y=220) → supply → HK1 → return → HX right (water in, y=455)

  Hotspot anchors (data-hotspot-x/y in 1200×680 viewBox):
    outdoor-temp   ( 42, 413)   fan-rpm        ( 42, 443)
    mode           (530,  22)   defrost        (165, 553)
    suction-temp   (443,  44)   pressure-low   (443,  60)
    comp-freq      (530, 100)   comp-hours     (500, 114)   comp-starts (560, 127)
    discharge-temp (618,  44)   pressure-high  (618,  60)
    liquid-temp    (685, 548)   pressure-high2 (685, 562)
    coldmix-temp   (448, 548)   pressure-low2  (448, 562)
    eev-position   (530, 630)
    supply-temp    (878, 198)   flow           (938, 198)
    return-temp    (878, 432)   water-pressure (938, 432)
    delta-t        (845, 320)
-->
<svg xmlns="http://www.w3.org/2000/svg" viewBox="0 0 1200 680"
     font-family="'Segoe UI','Helvetica Neue',Arial,sans-serif"
     preserveAspectRatio="xMidYMid meet">

<defs>
  <!-- ── Hollow-arrow pipe markers (white fill, colored stroke) ──────── -->
  <marker id="a-cool" viewBox="-2 -2 18 14" refX="13" refY="5"
          markerWidth="11" markerHeight="8" orient="auto">
    <polygon points="0,0 15,5 0,10" fill="white" stroke="#4a9fd4" stroke-width="2.5" stroke-linejoin="round"/>
  </marker>
  <marker id="a-hot" viewBox="-2 -2 18 14" refX="13" refY="5"
          markerWidth="11" markerHeight="8" orient="auto">
    <polygon points="0,0 15,5 0,10" fill="white" stroke="#e05530" stroke-width="2.5" stroke-linejoin="round"/>
  </marker>
  <marker id="a-liq" viewBox="-2 -2 18 14" refX="13" refY="5"
          markerWidth="11" markerHeight="8" orient="auto">
    <polygon points="0,0 15,5 0,10" fill="white" stroke="#c89a00" stroke-width="2.5" stroke-linejoin="round"/>
  </marker>
  <marker id="a-mix" viewBox="-2 -2 18 14" refX="13" refY="5"
          markerWidth="11" markerHeight="8" orient="auto">
    <polygon points="0,0 15,5 0,10" fill="white" stroke="#2e86c1" stroke-width="2.5" stroke-linejoin="round"/>
  </marker>
  <marker id="a-wh" viewBox="-2 -2 18 14" refX="13" refY="5"
          markerWidth="11" markerHeight="8" orient="auto">
    <polygon points="0,0 15,5 0,10" fill="white" stroke="#c0392b" stroke-width="2.5" stroke-linejoin="round"/>
  </marker>
  <marker id="a-wc" viewBox="-2 -2 18 14" refX="13" refY="5"
          markerWidth="11" markerHeight="8" orient="auto">
    <polygon points="0,0 15,5 0,10" fill="white" stroke="#1a6ea8" stroke-width="2.5" stroke-linejoin="round"/>
  </marker>

  <!-- ── Heat-exchanger fill gradients ────────────────────────────── -->
  <linearGradient id="g-hx-hot" x1="0" y1="0" x2="0" y2="1">
    <stop offset="0%" stop-color="#c0392b"/>
    <stop offset="100%" stop-color="#e74c3c"/>
  </linearGradient>
  <linearGradient id="g-hx-cold" x1="0" y1="0" x2="0" y2="1">
    <stop offset="0%" stop-color="#2980b9"/>
    <stop offset="100%" stop-color="#1a5276"/>
  </linearGradient>

  <!-- ── Component body gradients ─────────────────────────────────── -->
  <linearGradient id="g-comp" x1="0" y1="0" x2="0" y2="1">
    <stop offset="0%" stop-color="#6a7c8e"/>
    <stop offset="100%" stop-color="#2d3a47"/>
  </linearGradient>
  <linearGradient id="g-eev" x1="0" y1="0" x2="0" y2="1">
    <stop offset="0%" stop-color="#6a7c8e"/>
    <stop offset="100%" stop-color="#2d3a47"/>
  </linearGradient>
  <linearGradient id="g-fan" x1="0" y1="0" x2="1" y2="1">
    <stop offset="0%" stop-color="#5599cc"/>
    <stop offset="100%" stop-color="#90c4e0"/>
  </linearGradient>

  <!-- ── Clip paths for HX half-fill ─────────────────────────────── -->
  <clipPath id="cp-hx-hot"><rect x="650" y="130" width="190" height="190"/></clipPath>
  <clipPath id="cp-hx-cold"><rect x="650" y="320" width="190" height="190"/></clipPath>
</defs>

<!-- ═══════════════════ BACKGROUND ═══════════════════════════════════ -->
<rect width="1200" height="680" fill="#ffffff"/>

<!-- ═══════════════════ FAN ══════════════════════════════════════════ -->
<!-- Housing ring -->
<circle cx="42" cy="320" r="38" fill="#f5f5f5" stroke="#aaa" stroke-width="2"/>
<!-- Spinning blades (4-blade, rotate around housing center) -->
<g>
  <animateTransform attributeName="transform" type="rotate"
    from="0 42 320" to="360 42 320" dur="2.4s" repeatCount="indefinite"/>
  <path d="M42,282 C52,295 54,309 42,320 C38,309 38,295 42,282" fill="url(#g-fan)" opacity="0.88"/>
  <path d="M80,320 C67,330 53,332 42,320 C53,316 67,316 80,320" fill="url(#g-fan)" opacity="0.88"/>
  <path d="M42,358 C32,345 30,331 42,320 C46,331 46,345 42,358" fill="url(#g-fan)" opacity="0.88"/>
  <path d="M4,320  C16,310 30,308 42,320 C30,324 16,324 4,320"  fill="url(#g-fan)" opacity="0.88"/>
</g>
<circle cx="42" cy="320" r="5" fill="#444"/>
<!-- Air-flow arrows pointing right into evaporator -->
<g stroke="#bbb" stroke-width="1.5" fill="none">
  <line x1="84" y1="298" x2="97" y2="298"/>
  <polyline points="93,294 97,298 93,302"/>
  <line x1="84" y1="320" x2="97" y2="320"/>
  <polyline points="93,316 97,320 93,324"/>
  <line x1="84" y1="342" x2="97" y2="342"/>
  <polyline points="93,338 97,342 93,346"/>
</g>
<!-- Fan labels + sensor values (plain text, no boxes) -->
<text x="42" y="369" text-anchor="middle" fill="#888" font-size="8.5" font-weight="700" letter-spacing="0.6">AMBIENT AIR</text>
<text x="42" y="390" text-anchor="middle" fill="#777" font-size="8">OUTDOOR TEMP</text>
<text x="42" y="413" text-anchor="middle" fill="#111" font-size="14" font-weight="700"
      id="hotspot-outdoor-temp" data-hotspot-x="42" data-hotspot-y="413">— °C</text>
<text x="42" y="428" text-anchor="middle" fill="#777" font-size="8">FAN SPEED</text>
<text x="42" y="449" text-anchor="middle" fill="#111" font-size="13" font-weight="700"
      id="hotspot-fan-rpm" data-hotspot-x="42" data-hotspot-y="443">— rpm</text>

<!-- ═══════════════════ EVAPORATOR ════════════════════════════════════ -->
<!-- Outer box (no fill — shows white background, fins visible) -->
<rect x="100" y="130" width="310" height="380" fill="white" stroke="#999" stroke-width="2.5"/>
<!-- Horizontal aluminum fin lines (22 px pitch) -->
<g stroke="#ddd" stroke-width="1" fill="none">
  <line x1="100" y1="152" x2="410" y2="152"/>
  <line x1="100" y1="174" x2="410" y2="174"/>
  <line x1="100" y1="196" x2="410" y2="196"/>
  <line x1="100" y1="218" x2="410" y2="218"/>
  <line x1="100" y1="240" x2="410" y2="240"/>
  <line x1="100" y1="262" x2="410" y2="262"/>
  <line x1="100" y1="284" x2="410" y2="284"/>
  <line x1="100" y1="306" x2="410" y2="306"/>
  <line x1="100" y1="328" x2="410" y2="328"/>
  <line x1="100" y1="350" x2="410" y2="350"/>
  <line x1="100" y1="372" x2="410" y2="372"/>
  <line x1="100" y1="394" x2="410" y2="394"/>
  <line x1="100" y1="416" x2="410" y2="416"/>
  <line x1="100" y1="438" x2="410" y2="438"/>
  <line x1="100" y1="460" x2="410" y2="460"/>
  <line x1="100" y1="482" x2="410" y2="482"/>
  <line x1="100" y1="504" x2="410" y2="504"/>
</g>
<!--
  Serpentine refrigerant coil
  Cold mix enters bottom-right (410,493); cool gas exits top-right (410,163).
  Runs at midpoints between fin lines (every 22 px): …493,471,449,427…163.
  Even-numbered passes go left→right; odd go right→left (starts at right).
-->
<path id="evap-coil"
  d="M410,493 H120 V471 H410 V449 H120 V427 H410 V405 H120 V383 H410 V361
     H120 V339 H410 V317 H120 V295 H410 V273 H120 V251 H410 V229 H120 V207
     H410 V185 H120 V163 H410"
  fill="none" stroke="#4a9fd4" stroke-width="3.5"
  stroke-linecap="round" stroke-linejoin="round"/>
<!-- Flow animation on evap coil (upward: cold-mix → cool gas) -->
<use href="#evap-coil" fill="none" stroke="white" stroke-width="2"
     stroke-dasharray="8 20" opacity="0.65">
  <animate attributeName="stroke-dashoffset" from="0" to="-28" dur="3.2s" repeatCount="indefinite"/>
</use>
<!-- EVAPORATOR label above box -->
<text x="255" y="118" text-anchor="middle" fill="#333" font-size="13" font-weight="700" letter-spacing="1.5">EVAPORATOR</text>
<!-- Defrost indicator below box -->
<text x="155" y="528" fill="#777" font-size="8">DEFROST</text>
<text x="155" y="553" fill="#111" font-size="12" font-weight="700"
      id="hotspot-defrost" data-hotspot-x="165" data-hotspot-y="553">—</text>
<text x="250" y="528" fill="#777" font-size="8">REFRIGERANT</text>
<text x="250" y="553" fill="#333" font-size="12" font-weight="600">R32</text>

<!-- ═══════════════════ REFRIGERANT PIPES ════════════════════════════ -->

<!-- ── 1. SUCTION (cool gas, blue): Evap top-right → Compressor left ── -->
<!-- Route: (410,163) →R (425,163) →U (425,80) →R (474,80)              -->
<path d="M410,163 H425 V80" fill="none" stroke="#4a9fd4" stroke-width="14"
      stroke-linecap="round" stroke-linejoin="round" marker-end="url(#a-cool)"/>
<path d="M425,80 H474"    fill="none" stroke="#4a9fd4" stroke-width="14"
      stroke-linecap="round"                           marker-end="url(#a-cool)"/>
<!-- Flow overlay -->
<path d="M410,163 H425 V80 H474" fill="none" stroke="white" stroke-width="3"
      stroke-linecap="round" stroke-dasharray="10 18" opacity="0.55">
  <animate attributeName="stroke-dashoffset" from="0" to="-28" dur="1.9s" repeatCount="indefinite"/>
</path>
<!-- Pipe state label + sensor values -->
<text x="438" y="132" fill="#4a9fd4" font-size="9" font-weight="700" letter-spacing="0.5">COOL GAS</text>
<text x="443" y="35" text-anchor="middle" fill="#777" font-size="8">SUCTION TEMP</text>
<text x="443" y="50" text-anchor="middle" fill="#111" font-size="13" font-weight="700"
      id="hotspot-suction-temp" data-hotspot-x="443" data-hotspot-y="44">— °C</text>
<text x="443" y="66" text-anchor="middle" fill="#888" font-size="10"
      id="hotspot-pressure-low" data-hotspot-x="443" data-hotspot-y="60">— bar</text>

<!-- ── 2. DISCHARGE (hot gas, orange-red): Compressor right → HX top-left ── -->
<!-- Route: (586,80) →R (650,80) →D (650,175)                            -->
<path d="M586,80 H650"  fill="none" stroke="#e05530" stroke-width="14"
      stroke-linecap="round" stroke-linejoin="round" marker-end="url(#a-hot)"/>
<path d="M650,80 V175"  fill="none" stroke="#e05530" stroke-width="14"
      stroke-linecap="round"                         marker-end="url(#a-hot)"/>
<!-- Flow overlay -->
<path d="M586,80 H650 V175" fill="none" stroke="white" stroke-width="3"
      stroke-linecap="round" stroke-dasharray="10 18" opacity="0.55">
  <animate attributeName="stroke-dashoffset" from="0" to="-28" dur="1.3s" repeatCount="indefinite"/>
</path>
<!-- State label + sensor values -->
<text x="594" y="66" fill="#e05530" font-size="9" font-weight="700" letter-spacing="0.5">HOT GAS</text>
<text x="618" y="35" text-anchor="middle" fill="#777" font-size="8">DISCHARGE TEMP</text>
<text x="618" y="50" text-anchor="middle" fill="#111" font-size="13" font-weight="700"
      id="hotspot-discharge-temp" data-hotspot-x="618" data-hotspot-y="44">— °C</text>
<text x="618" y="66" text-anchor="middle" fill="#888" font-size="10"
      id="hotspot-pressure-high" data-hotspot-x="618" data-hotspot-y="60">— bar</text>

<!-- ── 3. LIQUID (condensed, amber): HX bottom-left → EEV right ── -->
<!-- Route: (650,490) →D (650,580) →L (558,580)                          -->
<path d="M650,490 V580"  fill="none" stroke="#c89a00" stroke-width="14"
      stroke-linecap="round" stroke-linejoin="round" marker-end="url(#a-liq)"/>
<path d="M650,580 H558"  fill="none" stroke="#c89a00" stroke-width="14"
      stroke-linecap="round"                          marker-end="url(#a-liq)"/>
<!-- Flow overlay -->
<path d="M650,490 V580 H558" fill="none" stroke="white" stroke-width="3"
      stroke-linecap="round" stroke-dasharray="10 18" opacity="0.55">
  <animate attributeName="stroke-dashoffset" from="0" to="-28" dur="2.1s" repeatCount="indefinite"/>
</path>
<!-- State label + sensor values -->
<text x="658" y="538" fill="#c89a00" font-size="9" font-weight="700" letter-spacing="0.4">LIQUID</text>
<text x="685" y="524" text-anchor="middle" fill="#777" font-size="8">LIQUID TEMP</text>
<text x="685" y="539" text-anchor="middle" fill="#111" font-size="13" font-weight="700"
      id="hotspot-liquid-temp" data-hotspot-x="685" data-hotspot-y="548">— °C</text>
<text x="685" y="555" text-anchor="middle" fill="#888" font-size="10"
      id="hotspot-pressure-high2" data-hotspot-x="685" data-hotspot-y="562">— bar</text>

<!-- ── 4. COLD MIX (two-phase, blue): EEV left → Evap bottom-right ── -->
<!-- Route: (502,580) →L (425,580) →U (425,493) →L (410,493)            -->
<path d="M502,580 H425"  fill="none" stroke="#2e86c1" stroke-width="14"
      stroke-linecap="round" stroke-linejoin="round" marker-end="url(#a-mix)"/>
<path d="M425,580 V493"  fill="none" stroke="#2e86c1" stroke-width="14"
      stroke-linecap="round"                          marker-end="url(#a-mix)"/>
<path d="M425,493 H410"  fill="none" stroke="#2e86c1" stroke-width="14"
      stroke-linecap="round"/>
<!-- Flow overlay -->
<path d="M502,580 H425 V493 H410" fill="none" stroke="white" stroke-width="3"
      stroke-linecap="round" stroke-dasharray="10 18" opacity="0.55">
  <animate attributeName="stroke-dashoffset" from="0" to="-28" dur="2.1s" repeatCount="indefinite"/>
</path>
<!-- State label + sensor values -->
<text x="448" y="570" text-anchor="middle" fill="#2e86c1" font-size="9" font-weight="700">COLD MIX</text>
<text x="448" y="524" text-anchor="middle" fill="#777" font-size="8">LIQUID TEMP</text>
<text x="448" y="539" text-anchor="middle" fill="#111" font-size="13" font-weight="700"
      id="hotspot-coldmix-temp" data-hotspot-x="448" data-hotspot-y="548">— °C</text>
<text x="448" y="555" text-anchor="middle" fill="#888" font-size="10"
      id="hotspot-pressure-low2" data-hotspot-x="448" data-hotspot-y="562">— bar</text>

<!-- ═══════════════════ COMPRESSOR ════════════════════════════════════ -->
<!-- Horizontal oval capsule, centered on the top pipe (y=80)           -->
<ellipse cx="530" cy="80" rx="56" ry="26"
         fill="url(#g-comp)" stroke="#3a4a58" stroke-width="2"/>
<!-- Scroll-compressor rings inside capsule -->
<g fill="none" stroke="#99bbcc" stroke-width="1.5" opacity="0.6"
   transform="translate(530,80)">
  <circle r="5"/>
  <circle r="11"/>
  <circle r="18"/>
</g>
<!-- Port dots -->
<circle cx="474" cy="80" r="5" fill="#4a9fd4" stroke="white" stroke-width="1.5"/>
<circle cx="586" cy="80" r="5" fill="#e05530" stroke="white" stroke-width="1.5"/>
<!-- COMPRESSOR label above capsule -->
<text x="530" y="36" text-anchor="middle" fill="#333" font-size="11" font-weight="700" letter-spacing="1.2">COMPRESSOR</text>
<!-- Operating mode just above label -->
<text x="530" y="18" text-anchor="middle" fill="#888" font-size="8" font-weight="700" letter-spacing="0.5">MODE</text>
<text x="530" y="28" text-anchor="middle" fill="#333" font-size="10" font-weight="700"
      id="hotspot-mode" data-hotspot-x="530" data-hotspot-y="22">—</text>
<!-- Stats below capsule (in the gap between capsule bottom y=106 and evap/HX top y=130) -->
<text x="530" y="96"  text-anchor="middle" fill="#777" font-size="7.5">FREQ</text>
<text x="530" y="108" text-anchor="middle" fill="#111" font-size="11" font-weight="700"
      id="hotspot-comp-freq" data-hotspot-x="530" data-hotspot-y="100">— Hz</text>
<text x="488" y="119" text-anchor="middle" fill="#777" font-size="7">HOURS</text>
<text x="488" y="130" text-anchor="middle" fill="#333" font-size="10" font-weight="700"
      id="hotspot-comp-hours" data-hotspot-x="500" data-hotspot-y="114">— h</text>
<text x="572" y="119" text-anchor="middle" fill="#777" font-size="7">STARTS</text>
<text x="572" y="130" text-anchor="middle" fill="#333" font-size="10" font-weight="700"
      id="hotspot-comp-starts" data-hotspot-x="560" data-hotspot-y="127">—</text>

<!-- ═══════════════════ EEV (Expansion Valve) ════════════════════════ -->
<!-- Small horizontal pill on the bottom pipe (y=580)                   -->
<rect x="502" y="563" width="56" height="34" rx="17"
      fill="url(#g-eev)" stroke="#3a4a58" stroke-width="2"/>
<!-- Bowtie valve symbol inside -->
<polygon points="515,573 544,573 530,581" fill="white" stroke="#c89a00" stroke-width="1.2" opacity="0.85"/>
<polygon points="515,590 544,590 530,582" fill="white" stroke="#2e86c1" stroke-width="1.2" opacity="0.85"/>
<!-- EEV label + value below -->
<text x="530" y="614" text-anchor="middle" fill="#555" font-size="9" font-weight="700" letter-spacing="0.8">EXPANSION VALVE</text>
<text x="530" y="629" text-anchor="middle" fill="#777" font-size="7.5">POSITION</text>
<text x="530" y="644" text-anchor="middle" fill="#111" font-size="12" font-weight="700"
      id="hotspot-eev-position" data-hotspot-x="530" data-hotspot-y="630">— %</text>

<!-- ═══════════════════ HEAT EXCHANGER ═══════════════════════════════ -->
<!-- Hot (red gradient) top half -->
<rect x="650" y="130" width="190" height="190" fill="url(#g-hx-hot)" clip-path="url(#cp-hx-hot)"/>
<!-- Cold (blue gradient) bottom half -->
<rect x="650" y="320" width="190" height="190" fill="url(#g-hx-cold)" clip-path="url(#cp-hx-cold)"/>
<!-- Outer box border -->
<rect x="650" y="130" width="190" height="380" fill="none" stroke="#666" stroke-width="2"/>
<!-- Temperature gradient boundary line -->
<line x1="650" y1="320" x2="840" y2="320" stroke="rgba(255,255,255,0.35)" stroke-width="2"/>

<!--
  White serpentine refrigerant coil inside HX.
  Hot gas enters top-left (660,175); liquid exits bottom-left (660,490).
  9 runs at 35 px pitch: 175,210,245,280,315,350,385,420,455,490.
  Starts and ends LEFT (x=660), alternating to RIGHT (x=825).
-->
<path id="hx-coil"
  d="M660,175 H825 V210 H660 V245 H825 V280 H660 V315 H825 V350
     H660 V385 H825 V420 H660 V455 H825 V490 H660"
  fill="none" stroke="white" stroke-width="3.5"
  stroke-linecap="round" stroke-linejoin="round" opacity="0.85"/>
<!-- Flow animation on HX coil (downward: hot gas → liquid) -->
<use href="#hx-coil" fill="none" stroke="rgba(255,255,255,0.55)"
     stroke-width="2" stroke-dasharray="8 20">
  <animate attributeName="stroke-dashoffset" from="0" to="-28" dur="2.5s" repeatCount="indefinite"/>
</use>
<!-- Short stubs connecting outer pipes to coil (inside HX boundary) -->
<line x1="650" y1="175" x2="660" y2="175" stroke="white" stroke-width="4"/>
<line x1="650" y1="490" x2="660" y2="490" stroke="white" stroke-width="4"/>

<!-- Water ports on HX right edge -->
<circle cx="840" cy="220" r="5" fill="#c0392b" stroke="white" stroke-width="1.5"/>
<circle cx="840" cy="455" r="5" fill="#1a6ea8" stroke="white" stroke-width="1.5"/>

<!-- HEAT EXCHANGER label above box -->
<text x="745" y="118" text-anchor="middle" fill="#333" font-size="13" font-weight="700" letter-spacing="1.2">HEAT EXCHANGER</text>
<!-- Inline water labels (right of HX box) -->
<text x="852" y="210" fill="#c0392b" font-size="9"  font-weight="700" letter-spacing="0.4">WATER OUT</text>
<text x="852" y="466" fill="#1a6ea8" font-size="9"  font-weight="700" letter-spacing="0.4">WATER IN</text>

<!-- ═══════════════════ WATER PIPES ═══════════════════════════════════ -->

<!-- Supply (hot water): HX water-out (840,220) → HK1 supply (995,220) -->
<path d="M840,220 H900" fill="none" stroke="#c0392b" stroke-width="12"
      stroke-linecap="round" marker-end="url(#a-wh)"/>
<path d="M900,220 H995" fill="none" stroke="#c0392b" stroke-width="12"
      stroke-linecap="round" marker-end="url(#a-wh)"/>
<!-- Supply flow overlay -->
<path d="M840,220 H995" fill="none" stroke="white" stroke-width="2.5"
      stroke-linecap="round" stroke-dasharray="10 16" opacity="0.5">
  <animate attributeName="stroke-dashoffset" from="0" to="-26" dur="1.6s" repeatCount="indefinite"/>
</path>

<!-- Return (cool water): HK1 return (995,415) → HX water-in (840,455) -->
<path d="M995,415 H900" fill="none" stroke="#1a6ea8" stroke-width="12"
      stroke-linecap="round" marker-end="url(#a-wc)"/>
<path d="M900,415 H840" fill="none" stroke="#1a6ea8" stroke-width="12"
      stroke-linecap="round" marker-end="url(#a-wc)"/>
<path d="M840,415 V455" fill="none" stroke="#1a6ea8" stroke-width="12"
      stroke-linecap="round" marker-end="url(#a-wc)"/>
<!-- Return flow overlay -->
<path d="M995,415 H840 V455" fill="none" stroke="white" stroke-width="2.5"
      stroke-linecap="round" stroke-dasharray="10 16" opacity="0.5">
  <animate attributeName="stroke-dashoffset" from="0" to="-26" dur="1.6s" repeatCount="indefinite"/>
</path>

<!-- Water pipe sensor labels (plain text above/below respective pipes) -->
<!-- Supply temp — above supply pipe (pipe at y=220, label above) -->
<text x="878" y="200" text-anchor="middle" fill="#777" font-size="8">SUPPLY TEMP</text>
<text x="878" y="214" text-anchor="middle" fill="#111" font-size="12" font-weight="700"
      id="hotspot-supply-temp" data-hotspot-x="878" data-hotspot-y="198">— °C</text>
<!-- Flow — above supply pipe, further right -->
<text x="938" y="200" text-anchor="middle" fill="#777" font-size="8">FLOW</text>
<text x="938" y="214" text-anchor="middle" fill="#111" font-size="12" font-weight="700"
      id="hotspot-flow" data-hotspot-x="938" data-hotspot-y="198">— L/min</text>
<!-- Return temp — below return pipe (pipe at y=415, labels below) -->
<text x="878" y="432" text-anchor="middle" fill="#777" font-size="8">RETURN TEMP</text>
<text x="878" y="447" text-anchor="middle" fill="#111" font-size="12" font-weight="700"
      id="hotspot-return-temp" data-hotspot-x="878" data-hotspot-y="432">— °C</text>
<!-- Water pressure — below return pipe -->
<text x="938" y="432" text-anchor="middle" fill="#777" font-size="8">PRESSURE</text>
<text x="938" y="447" text-anchor="middle" fill="#111" font-size="12" font-weight="700"
      id="hotspot-water-pressure" data-hotspot-x="938" data-hotspot-y="432">— bar</text>
<!-- Delta-T — vertically centered between supply and return, near HX right -->
<text x="845" y="312" text-anchor="middle" fill="#999" font-size="10">ΔT</text>
<text x="845" y="328" text-anchor="middle" fill="#333" font-size="13" font-weight="700"
      id="hotspot-delta-t" data-hotspot-x="845" data-hotspot-y="320">— K</text>

<!-- ═══════════════════ HK1 BOX ════════════════════════════════════════ -->
<g id="hk1">
  <!-- Box border -->
  <rect x="995" y="190" width="150" height="250" rx="8"
        fill="white" stroke="#bbb" stroke-width="1.5"/>
  <!-- HK1 header bar -->
  <rect x="995" y="190" width="150" height="26" rx="8" fill="#34495e"/>
  <rect x="995" y="204" width="150" height="12" fill="#34495e"/>
  <text x="1070" y="207" text-anchor="middle" fill="white" font-size="11" font-weight="700" letter-spacing="1">HK1</text>
  <!-- Radiator coils (schematic) -->
  <g fill="none" stroke="#e74c3c" stroke-width="1.4" opacity="0.7"
     transform="translate(1012,222)">
    <rect x="0"  y="0" width="8" height="55" rx="2"/>
    <rect x="12" y="0" width="8" height="55" rx="2"/>
    <rect x="24" y="0" width="8" height="55" rx="2"/>
    <rect x="36" y="0" width="8" height="55" rx="2"/>
    <rect x="48" y="0" width="8" height="55" rx="2"/>
    <rect x="60" y="0" width="8" height="55" rx="2"/>
    <rect x="72" y="0" width="8" height="55" rx="2"/>
    <rect x="84" y="0" width="8" height="55" rx="2"/>
    <line x1="-2" y1="6"  x2="95" y2="6"/>
    <line x1="-2" y1="49" x2="95" y2="49"/>
  </g>
  <!-- Heating circuit pump (rotating) -->
  <g transform="translate(1070,355)">
    <circle r="18" fill="#f7f9fc" stroke="#2980b9" stroke-width="1.5"/>
    <g>
      <animateTransform attributeName="transform" type="rotate"
        from="0" to="360" dur="2.2s" repeatCount="indefinite"/>
      <path d="M0,-13 C4,-8 4,-2 0,0 C-4,-2 -4,-8 0,-13" fill="#2980b9"/>
      <path d="M0,13  C-4,8 -4,2 0,0  C4,2 4,8 0,13"  fill="#2980b9"/>
      <path d="M-13,0 C-8,4 -2,4 0,0  C-2,-4 -8,-4 -13,0" fill="#2980b9"/>
      <path d="M13,0  C8,-4 2,-4 0,0  C2,4 8,4 13,0"  fill="#2980b9"/>
    </g>
    <circle r="3.5" fill="#2980b9"/>
  </g>
  <!-- Supply/return port stubs inside box -->
  <line x1="995" y1="220" x2="1010" y2="220" stroke="#c0392b" stroke-width="3" opacity="0.6"/>
  <line x1="995" y1="415" x2="1010" y2="415" stroke="#1a6ea8" stroke-width="3" opacity="0.6"/>
</g>

<!-- ═══════════════════ WATERMARK ══════════════════════════════════════ -->
<text x="1185" y="672" text-anchor="end" fill="#ccc" font-size="8" opacity="0.8">
  HeatPump Hero · schema_hph_hk1 v0.6
</text>

</svg>
